<svg id="visual" viewBox="0 0 900 300" width="900" height="300" xmlns="http://www.w3.org/2000/svg" xmlns:xlink="http://www.w3.org/1999/xlink" version="1.1"><rect x="0" y="0" width="900" height="300" fill="#202731"></rect><path d="M0 193L18.8 196.3C37.7 199.7 75.3 206.3 112.8 202.7C150.3 199 187.7 185 225.2 177.7C262.7 170.3 300.3 169.7 337.8 178.3C375.3 187 412.7 205 450.2 212.2C487.7 219.3 525.3 215.7 562.8 208.2C600.3 200.7 637.7 189.3 675.2 185.7C712.7 182 750.3 186 787.8 190.3C825.3 194.7 862.7 199.3 881.3 201.7L900 204L900 0L881.3 0C862.7 0 825.3 0 787.8 0C750.3 0 712.7 0 675.2 0C637.7 0 600.3 0 562.8 0C525.3 0 487.7 0 450.2 0C412.7 0 375.3 0 337.8 0C300.3 0 262.7 0 225.2 0C187.7 0 150.3 0 112.8 0C75.3 0 37.7 0 18.8 0L0 0Z" fill="#ff5647"></path><path d="M0 186L18.8 178.8C37.7 171.7 75.3 157.3 112.8 157.5C150.3 157.7 187.7 172.3 225.2 176C262.7 179.7 300.3 172.3 337.8 170.2C375.3 168 412.7 171 450.2 166.2C487.7 161.3 525.3 148.7 562.8 147.3C600.3 146 637.7 156 675.2 162C712.7 168 750.3 170 787.8 168.2C825.3 166.3 862.7 160.7 881.3 157.8L900 155L900 0L881.3 0C862.7 0 825.3 0 787.8 0C750.3 0 712.7 0 675.2 0C637.7 0 600.3 0 562.8 0C525.3 0 487.7 0 450.2 0C412.7 0 375.3 0 337.8 0C300.3 0 262.7 0 225.2 0C187.7 0 150.3 0 112.8 0C75.3 0 37.7 0 18.8 0L0 0Z" fill="#f65141"></path><path d="M0 127L18.8 123.5C37.7 120 75.3 113 112.8 114.5C150.3 116 187.7 126 225.2 126.2C262.7 126.3 300.3 116.7 337.8 116.8C375.3 117 412.7 127 450.2 127.7C487.7 128.3 525.3 119.7 562.8 121.2C600.3 122.7 637.7 134.3 675.2 138.3C712.7 142.3 750.3 138.7 787.8 138.5C825.3 138.3 862.7 141.7 881.3 143.3L900 145L900 0L881.3 0C862.7 0 825.3 0 787.8 0C750.3 0 712.7 0 675.2 0C637.7 0 600.3 0 562.8 0C525.3 0 487.7 0 450.2 0C412.7 0 375.3 0 337.8 0C300.3 0 262.7 0 225.2 0C187.7 0 150.3 0 112.8 0C75.3 0 37.7 0 18.8 0L0 0Z" fill="#ee4b3c"></path><path d="M0 82L18.8 85.2C37.7 88.3 75.3 94.7 112.8 96.3C150.3 98 187.7 95 225.2 94.5C262.7 94 300.3 96 337.8 94C375.3 92 412.7 86 450.2 85.3C487.7 84.7 525.3 89.3 562.8 89.7C600.3 90 637.7 86 675.2 87.5C712.7 89 750.3 96 787.8 95.8C825.3 95.7 862.7 88.3 881.3 84.7L900 81L900 0L881.3 0C862.7 0 825.3 0 787.8 0C750.3 0 712.7 0 675.2 0C637.7 0 600.3 0 562.8 0C525.3 0 487.7 0 450.2 0C412.7 0 375.3 0 337.8 0C300.3 0 262.7 0 225.2 0C187.7 0 150.3 0 112.8 0C75.3 0 37.7 0 18.8 0L0 0Z" fill="#e54536"></path><path d="M0 48L18.8 46.2C37.7 44.3 75.3 40.7 112.8 40.3C150.3 40 187.7 43 225.2 44.2C262.7 45.3 300.3 44.7 337.8 46.8C375.3 49 412.7 54 450.2 54.3C487.7 54.7 525.3 50.3 562.8 46.7C600.3 43 637.7 40 675.2 42.2C712.7 44.3 750.3 51.7 787.8 55C825.3 58.3 862.7 57.7 881.3 57.3L900 57L900 0L881.3 0C862.7 0 825.3 0 787.8 0C750.3 0 712.7 0 675.2 0C637.7 0 600.3 0 562.8 0C525.3 0 487.7 0 450.2 0C412.7 0 375.3 0 337.8 0C300.3 0 262.7 0 225.2 0C187.7 0 150.3 0 112.8 0C75.3 0 37.7 0 18.8 0L0 0Z" fill="#dd3f31"></path></svg>