<?xml version="1.0" standalone="no"?>
<!DOCTYPE svg PUBLIC "-//W3C//DTD SVG 20010904//EN"
 "http://www.w3.org/TR/2001/REC-SVG-20010904/DTD/svg10.dtd">
<svg version="1.0" xmlns="http://www.w3.org/2000/svg"
 width="512.000000pt" height="512.000000pt" viewBox="0 0 512.000000 512.000000"
 preserveAspectRatio="xMidYMid meet">

<g transform="translate(0.000000,512.000000) scale(0.100000,-0.100000)"
fill="#000000" stroke="none">
<path d="M115 5101 c-48 -22 -79 -54 -100 -103 -13 -33 -15 -125 -15 -708 l0
-671 25 -24 c31 -32 69 -32 100 0 l25 24 0 660 c0 586 2 661 16 675 14 14 84
16 628 16 463 0 615 -3 624 -12 17 -17 17 -2129 0 -2146 -17 -17 -1239 -17
-1256 0 -9 9 -12 81 -12 260 l0 249 -25 24 c-13 14 -36 25 -50 25 -14 0 -37
-11 -50 -25 l-25 -24 0 -258 c0 -249 1 -260 22 -303 13 -24 40 -58 61 -74 l39
-31 655 -3 c655 -2 656 -2 701 19 29 15 54 37 73 67 l29 46 0 1092 c0 748 -3
1102 -11 1121 -15 40 -57 82 -104 104 -38 17 -78 19 -675 19 -596 0 -637 -2
-675 -19z"/>
<path d="M1890 5104 c-45 -20 -77 -50 -101 -96 -19 -37 -19 -71 -17 -1136 l3
-1098 24 -36 c13 -19 40 -46 59 -59 l36 -24 666 0 666 0 36 24 c19 13 46 40
59 59 l24 36 3 1098 c2 1065 2 1099 -17 1136 -24 47 -56 77 -103 97 -55 23
-1285 22 -1338 -1z m1288 -150 l22 -15 0 -1054 c0 -944 -2 -1055 -16 -1069
-14 -14 -84 -16 -628 -16 -463 0 -615 3 -624 12 -9 9 -12 260 -12 1069 0 948
2 1059 16 1073 14 14 83 16 617 16 529 0 605 -2 625 -16z"/>
<path d="M2487 4440 c-127 -32 -231 -144 -244 -265 -4 -34 -1 -47 16 -64 51
-51 115 -29 137 46 17 59 42 92 87 115 108 55 237 -24 237 -144 0 -89 -56
-152 -146 -165 -30 -4 -57 -15 -71 -29 -21 -21 -23 -32 -23 -137 0 -100 3
-117 21 -141 16 -20 29 -26 58 -26 57 0 75 26 79 113 l4 72 54 24 c62 27 126
92 157 159 31 68 30 188 -2 259 -27 61 -103 136 -165 164 -53 23 -146 32 -199
19z"/>
<path d="M2500 3443 c-39 -50 -3 -123 60 -123 63 0 99 73 60 123 -17 21 -30
27 -60 27 -30 0 -43 -6 -60 -27z"/>
<path d="M3655 5101 c-47 -22 -89 -64 -104 -104 -8 -19 -11 -373 -11 -1121 l0
-1092 29 -46 c19 -30 44 -52 73 -67 45 -21 46 -21 701 -19 l655 3 39 31 c21
16 48 50 61 74 l22 44 0 604 c0 374 -4 610 -10 622 -16 29 -67 42 -100 25 -15
-8 -30 -22 -34 -30 -3 -9 -6 -283 -6 -609 0 -447 -3 -595 -12 -604 -17 -17
-1239 -17 -1256 0 -17 17 -17 2129 0 2146 9 9 161 12 624 12 544 0 614 -2 628
-16 14 -13 16 -57 16 -328 l0 -313 23 -21 c33 -31 80 -29 106 4 20 26 21 38
21 346 0 265 -3 325 -15 356 -21 49 -52 81 -100 103 -38 17 -79 19 -675 19
-597 0 -637 -2 -675 -19z"/>
<path d="M550 4281 c-139 -46 -224 -158 -224 -296 0 -113 28 -160 191 -326
151 -154 190 -179 274 -179 85 1 121 24 275 181 174 177 189 202 189 324 0 81
-3 95 -30 144 -76 137 -260 200 -393 134 -38 -18 -39 -18 -83 1 -48 21 -159
30 -199 17z m177 -182 c51 -36 79 -37 123 -4 78 58 162 54 218 -9 36 -41 47
-92 31 -148 -9 -34 -36 -67 -143 -175 -108 -109 -137 -133 -161 -133 -23 0
-53 24 -158 128 -71 70 -136 141 -143 159 -22 52 -18 113 11 156 14 20 27 37
28 37 1 0 20 7 42 15 52 19 100 11 152 -26z"/>
<path d="M4093 4219 c-57 -28 -189 -167 -201 -213 -20 -71 -4 -97 176 -279 92
-93 179 -175 194 -183 15 -8 48 -14 74 -14 l48 0 179 178 c98 97 185 189 193
204 18 35 18 82 0 116 -21 40 -176 189 -209 201 -16 6 -110 11 -220 11 -174 0
-196 -2 -234 -21z m462 -189 l60 -60 -143 -143 -142 -142 -142 142 -143 143
60 60 59 60 166 0 166 0 59 -60z"/>
<path d="M115 2456 c-39 -18 -80 -62 -99 -108 -14 -33 -16 -163 -16 -1115 0
-1027 1 -1080 19 -1118 22 -48 54 -79 103 -100 32 -13 121 -15 670 -15 595 0
635 2 673 19 47 22 89 64 104 104 8 19 11 373 11 1121 l0 1092 -30 48 c-57 90
-21 86 -760 85 -517 0 -651 -2 -675 -13z m1296 -146 c19 -10 19 -33 19 -1070
l0 -1059 -22 -15 c-20 -14 -96 -16 -622 -16 -544 0 -601 2 -618 17 -17 15 -18
62 -18 1069 0 944 2 1054 16 1068 14 14 84 16 620 16 398 0 612 -4 625 -10z"/>
<path d="M684 1782 c-101 -36 -181 -126 -205 -230 -11 -48 -11 -55 8 -80 14
-19 30 -28 57 -30 47 -4 72 17 87 71 23 87 74 127 161 127 207 0 219 -294 14
-324 -80 -12 -90 -29 -94 -146 -2 -55 -1 -112 2 -126 16 -63 86 -84 131 -39
22 21 25 33 25 93 l0 69 44 17 c24 9 64 34 88 55 133 117 145 321 27 454 -81
93 -229 131 -345 89z"/>
<path d="M744 807 c-20 -17 -27 -33 -27 -57 0 -24 7 -40 27 -57 32 -27 47 -28
86 -8 53 27 53 103 0 130 -39 20 -54 19 -86 -8z"/>
<path d="M1885 2456 c-40 -18 -85 -63 -101 -103 -11 -26 -14 -120 -14 -448 0
-402 1 -416 20 -435 33 -33 75 -30 108 6 l22 25 0 398 c0 295 3 400 12 409 17
17 1239 17 1256 0 17 -17 17 -2129 0 -2146 -17 -17 -1239 -17 -1256 0 -9 9
-12 138 -12 519 0 497 0 507 -21 533 -26 33 -79 36 -109 6 -19 -19 -20 -33
-20 -545 0 -497 1 -528 19 -563 24 -47 56 -77 103 -97 32 -13 121 -15 668 -15
547 0 636 2 668 15 47 20 79 50 103 97 19 37 19 71 17 1136 l-3 1098 -24 36
c-13 19 -40 46 -59 59 l-36 24 -655 2 c-529 2 -662 0 -686 -11z"/>
<path d="M3641 2448 c-28 -14 -54 -37 -72 -67 l-29 -45 0 -1092 c0 -748 3
-1102 11 -1121 15 -40 57 -82 104 -104 38 -17 78 -19 673 -19 549 0 638 2 670
15 49 21 81 52 103 100 18 38 19 91 19 1120 0 1030 -1 1082 -19 1120 -22 47
-64 89 -104 104 -19 7 -241 11 -670 11 -638 0 -642 0 -686 -22z m1317 -140 c9
-9 12 -260 12 -1069 0 -948 -2 -1059 -16 -1073 -14 -14 -84 -16 -628 -16 -463
0 -615 3 -624 12 -17 17 -17 2129 0 2146 17 17 1239 17 1256 0z"/>
<path d="M4095 1578 c-11 -6 -59 -49 -108 -97 -96 -94 -114 -131 -97 -191 7
-25 59 -84 182 -208 95 -95 185 -180 200 -188 32 -17 81 -18 111 -3 31 16 356
339 373 371 16 32 18 76 4 113 -14 36 -124 151 -179 186 l-45 29 -210 0 c-133
0 -218 -5 -231 -12z m460 -198 l60 -60 -143 -143 -142 -142 -145 145 -145 145
57 57 57 58 171 0 171 0 59 -60z"/>
<path d="M2262 1610 c-114 -57 -167 -145 -166 -275 0 -117 25 -158 193 -327
147 -147 193 -177 272 -178 77 0 132 36 276 183 162 164 187 207 187 322 1
130 -52 218 -166 275 -75 37 -168 41 -248 11 -49 -19 -51 -19 -100 0 -80 30
-173 26 -248 -11z m228 -155 c30 -19 62 -34 70 -34 8 0 40 15 70 34 57 37 97
43 147 24 36 -13 73 -47 85 -79 14 -37 12 -104 -5 -136 -9 -16 -72 -85 -141
-153 -106 -106 -129 -124 -156 -124 -27 0 -50 18 -156 124 -128 127 -150 155
-154 199 -5 61 1 90 27 121 57 68 132 76 213 24z"/>
</g>
</svg>
