<?xml version="1.0" standalone="no"?>
<!DOCTYPE svg PUBLIC "-//W3C//DTD SVG 20010904//EN"
 "http://www.w3.org/TR/2001/REC-SVG-20010904/DTD/svg10.dtd">
<svg version="1.0" xmlns="http://www.w3.org/2000/svg"
 width="512.000000pt" height="512.000000pt" viewBox="0 0 512.000000 512.000000"
 preserveAspectRatio="xMidYMid meet">

<g transform="translate(0.000000,512.000000) scale(0.100000,-0.100000)"
fill="#000000" stroke="none">
<path d="M1932 5095 c-16 -14 -76 -77 -133 -141 -239 -266 -273 -362 -267
-746 3 -221 3 -224 31 -280 55 -112 168 -195 279 -206 32 -3 48 -9 48 -18 0
-8 -45 -213 -101 -457 -85 -372 -100 -452 -96 -502 19 -249 315 -358 494 -183
23 23 51 62 61 87 11 25 44 152 73 281 29 129 55 238 59 243 3 4 34 -110 69
-252 67 -279 84 -319 157 -379 85 -70 210 -83 312 -31 69 34 104 71 138 144
38 81 33 134 -46 444 -39 150 -70 279 -70 287 0 8 10 14 23 14 87 0 205 78
242 159 l18 41 72 -7 c54 -4 85 -1 123 11 68 23 143 91 173 158 24 53 24 56
23 383 0 306 -2 336 -22 407 -26 96 -69 184 -100 209 -38 29 -88 25 -124 -11
-26 -27 -29 -36 -25 -73 2 -23 16 -70 31 -103 37 -88 46 -168 46 -447 0 -263
-6 -303 -48 -326 -60 -32 -124 4 -135 75 -9 54 -40 92 -81 100 -38 7 -89 -15
-106 -45 -5 -11 -10 -72 -10 -136 0 -84 -4 -124 -15 -145 -31 -60 -90 -67
-141 -16 -31 31 -34 40 -34 90 0 72 -35 117 -92 119 -42 1 -85 -24 -98 -59
-16 -41 -11 -121 10 -182 30 -83 210 -804 210 -839 0 -45 -42 -83 -92 -83 -74
0 -74 -2 -198 506 -62 252 -119 471 -126 486 -28 54 -106 68 -150 27 -29 -28
-21 3 -144 -533 -55 -242 -106 -446 -113 -454 -23 -29 -72 -43 -106 -31 -32
11 -61 53 -61 87 0 11 46 219 102 463 l102 444 0 228 1 229 -33 29 c-36 32
-69 36 -111 15 -40 -21 -51 -56 -51 -161 l0 -95 -29 0 c-33 0 -85 33 -115 73
-19 26 -21 44 -24 233 -5 316 14 367 222 602 120 135 136 157 136 188 0 46
-14 70 -50 89 -42 22 -74 19 -108 -10z"/>
<path d="M3084 5086 c-24 -24 -34 -43 -34 -66 0 -41 56 -100 94 -100 105 0
146 139 55 186 -45 23 -78 17 -115 -20z"/>
<path d="M3467 2559 c-86 -21 -172 -90 -203 -164 -13 -32 -15 -32 -88 -37 -87
-6 -144 -34 -200 -99 -48 -56 -69 -124 -64 -204 l4 -64 -37 -16 c-51 -23 -104
-80 -130 -140 -41 -91 -23 -230 39 -298 16 -18 15 -19 -3 -29 -41 -22 -103
-97 -119 -144 -25 -73 -21 -170 9 -230 34 -69 866 -913 963 -977 87 -58 169
-92 268 -111 100 -19 502 -49 537 -40 88 22 87 170 -1 188 -15 3 -115 13 -222
21 -107 8 -215 17 -240 20 -74 10 -167 44 -229 86 -35 23 -226 210 -480 468
-393 401 -421 432 -421 464 0 49 8 66 41 82 56 30 62 25 294 -205 197 -196
225 -220 254 -220 70 0 120 55 106 118 -4 21 -95 120 -310 340 -174 177 -307
321 -310 335 -8 29 16 82 44 97 55 29 60 25 386 -300 170 -170 321 -313 335
-318 52 -19 115 18 126 73 7 41 -11 77 -66 130 -23 22 -176 178 -341 347 -281
288 -299 308 -299 343 0 50 36 85 87 85 37 1 49 -11 384 -349 190 -192 356
-354 367 -360 38 -20 72 -13 108 23 37 37 43 70 20 114 -8 15 -141 153 -296
307 -302 300 -340 343 -340 385 0 59 61 100 117 79 15 -6 219 -204 453 -440
409 -413 426 -430 462 -429 24 0 47 9 67 26 26 22 31 33 31 72 l0 46 -178 180
c-238 242 -222 220 -181 245 40 25 117 28 157 7 37 -19 521 -510 560 -567 35
-51 47 -59 98 -59 58 0 105 64 90 123 -11 44 -89 133 -345 392 -300 304 -319
318 -458 324 -98 4 -163 -15 -230 -66 l-45 -35 -172 171 c-182 181 -216 204
-311 214 -27 3 -67 1 -88 -4z"/>
<path d="M1087 2380 c-21 -6 -52 -17 -70 -26 -38 -20 -490 -465 -553 -545
-108 -139 -149 -271 -162 -517 l-8 -162 -148 -150 -149 -149 6 -43 c8 -57 43
-88 100 -88 40 0 46 4 213 173 l172 172 6 110 c17 311 32 384 98 488 46 75
493 524 533 537 89 29 149 -70 90 -150 -42 -57 -28 -127 31 -155 51 -24 80
-10 176 82 79 76 90 83 126 83 33 0 45 -6 67 -32 31 -37 29 -70 -7 -121 -46
-65 -17 -149 58 -163 41 -8 65 5 141 77 52 50 67 59 98 59 49 0 85 -36 85 -85
0 -29 -10 -46 -55 -95 -48 -52 -55 -65 -55 -101 0 -32 6 -47 29 -70 37 -37 81
-38 136 -4 54 33 89 32 126 -4 31 -31 36 -59 18 -94 -6 -12 -103 -114 -215
-228 -199 -200 -204 -206 -204 -246 0 -62 34 -98 94 -98 45 0 47 2 165 119
l118 118 17 -23 c28 -41 38 -94 26 -142 -10 -36 -40 -70 -203 -233 -263 -261
-295 -277 -592 -294 -93 -6 -184 -13 -200 -15 -22 -4 -61 -35 -140 -115 -104
-104 -110 -112 -110 -151 0 -34 6 -46 33 -70 58 -52 93 -41 202 67 l75 74 165
10 c196 12 290 33 404 92 72 38 105 66 302 263 203 201 224 225 244 280 44
118 26 257 -46 351 l-35 45 32 37 c126 143 91 358 -73 446 l-58 31 0 51 c0
104 -55 197 -148 252 -41 24 -57 27 -133 27 l-87 0 -23 43 c-28 53 -91 106
-150 127 -53 19 -145 21 -196 4 -30 -10 -38 -9 -42 2 -9 28 -94 108 -136 128
-53 25 -135 34 -188 21z"/>
</g>
</svg>
